<?xml version="1.0" encoding="utf-8"?>
<!-- Generator: Adobe Illustrator 22.1.0, SVG Export Plug-In . SVG Version: 6.00 Build 0)  -->
<svg version="1.1" id="Capa_1" xmlns="http://www.w3.org/2000/svg" xmlns:xlink="http://www.w3.org/1999/xlink" x="0px" y="0px"
	 viewBox="0 0 188 188" style="enable-background:new 0 0 188 188;" xml:space="preserve">
<style type="text/css">
	.st0{fill:#A50932;}
	.st1{display:none;}
	.st2{display:inline;fill:#FFFFFF;}
	.st3{fill:#FFFFFF;}
</style>
<circle class="st0" cx="94" cy="94" r="92.3"/>
<g class="st1">
	<path class="st2" d="M112.2,131.3c-1,0-1.8,0.8-1.8,1.8v13.3c0,1,0.8,1.8,1.8,1.8s1.8-0.8,1.8-1.8v-13.3
		C114,132.2,113.2,131.3,112.2,131.3z"/>
	<path class="st2" d="M75.8,131.3c-1,0-1.8,0.8-1.8,1.8v13.3c0,1,0.8,1.8,1.8,1.8s1.8-0.8,1.8-1.8v-13.3
		C77.7,132.2,76.9,131.3,75.8,131.3z"/>
	<path class="st2" d="M151.4,125.3l-19.3-57.7c-0.3-0.7-1-1.2-1.8-1.2s-1.5,0.5-1.8,1.2L122.8,85l-8.9-26.7c-0.3-0.7-1-1.2-1.8-1.2
		s-1.5,0.5-1.8,1.2L106,71.6L95.8,40.9c-0.3-0.7-1-1.2-1.8-1.2s-1.5,0.5-1.8,1.2L82.1,71.6l-4.5-13.4c-0.3-0.7-1-1.2-1.8-1.2
		s-1.5,0.5-1.8,1.2l-8.9,26.7l-5.8-17.4c-0.3-0.7-1-1.2-1.8-1.2s-1.5,0.5-1.8,1.2l-19.3,57.7c-0.2,0.5-0.1,1.2,0.3,1.6
		c0.3,0.5,0.9,0.7,1.5,0.7h17.4v18.8c0,1,0.8,1.8,1.8,1.8s1.8-0.8,1.8-1.8v-18.8h32.7v18.8c0,1,0.8,1.8,1.8,1.8s1.8-0.8,1.8-1.8
		v-18.8h32.7v18.8c0,1,0.8,1.8,1.8,1.8s1.8-0.8,1.8-1.8v-18.8h17.4c0.6,0,1.2-0.3,1.5-0.7C151.5,126.4,151.6,125.8,151.4,125.3z
		 M112.2,64.5l8.8,26.1l-4.3,12.8l-8.8-26.1L112.2,64.5z M75.8,64.5l4.3,12.8l-8.7,26.1l-4.3-12.8L75.8,64.5z M57.6,110.8
		c-1,0-1.8,0.8-1.8,1.8V124H40.9l16.7-50.1l11.8,35.4L64.6,124h-5.1v-11.4C59.5,111.6,58.7,110.8,57.6,110.8z M95.9,114l9.4-10.1
		c0.7-0.7,0.7-1.9-0.1-2.6c-0.7-0.7-1.9-0.7-2.6,0.1l-6.8,7.3V94.2c0-1-0.8-1.8-1.8-1.8s-1.8,0.8-1.8,1.8v14.3l-6.8-7.1
		c-0.7-0.7-1.8-0.7-2.6-0.1s-0.7,1.8-0.1,2.6l9.4,9.9V124H68.4L94,47.3l25.6,76.7H95.9V114z M132.2,124v-11.4c0-1-0.8-1.8-1.8-1.8
		s-1.8,0.8-1.8,1.8V124h-5.1l-4.9-14.7l11.8-35.4l16.7,50.1H132.2z"/>
</g>
<g>
	<g>
		<g>
			<path class="st3" d="M104.2,100v-49c0-8.5-6.9-15.3-15.3-15.3s-15.3,6.9-15.3,15.3v49c-13.2,8.4-17.1,26-8.7,39.3
				c5.2,8.2,14.2,13.1,23.9,13.1l0.2,0c15.7,0,28.4-12.8,28.4-28.5C117.3,114.2,112.4,105.2,104.2,100z M76.9,144.8
				c-11.5-6.7-15.5-21.4-8.8-32.9c2.1-3.7,5.2-6.7,8.8-8.8c0.7-0.4,1.1-1.1,1.1-1.9V50.9c0-6.1,4.9-11,11-11s11,4.9,11,11v50.2
				c0,0.8,0.4,1.5,1.1,1.9c11.5,6.7,15.5,21.4,8.8,32.9C103.2,147.5,88.4,151.5,76.9,144.8z"/>
		</g>
	</g>
	<g>
		<g>
			<path class="st3" d="M91.1,108.3v-33c0-1.2-1-2.2-2.2-2.2s-2.2,1-2.2,2.2v33c-8.2,1.2-13.9,8.8-12.8,17
				c1.1,7.4,7.4,12.9,14.9,12.9c8.3,0,15.1-6.7,15.1-15C104.1,115.7,98.5,109.4,91.1,108.3z M88.9,133.9c-5.9,0-10.7-4.8-10.7-10.7
				c0-5.9,4.8-10.7,10.7-10.7l0,0c5.9,0,10.7,4.8,10.7,10.7C99.6,129.1,94.8,133.9,88.9,133.9z"/>
		</g>
	</g>
	<g>
		<g>
			<path class="st3" d="M125.4,50.6h-13.6c-1.2,0-2.2,1-2.2,2.2c0,1.2,1,2.2,2.2,2.2h13.6c1.2,0,2.2-1,2.2-2.2
				C127.6,51.6,126.6,50.6,125.4,50.6z"/>
		</g>
	</g>
	<g>
		<g>
			<path class="st3" d="M122.5,61.5h-8c-1.2,0-2.2,1-2.2,2.2c0,1.2,1,2.2,2.2,2.2h8c1.2,0,2.2-1,2.2-2.2
				C124.7,62.4,123.7,61.5,122.5,61.5z"/>
		</g>
	</g>
	<g>
		<g>
			<path class="st3" d="M125.4,72.4h-13.6c-1.2,0-2.2,1-2.2,2.2s1,2.2,2.2,2.2h13.6c1.2,0,2.2-1,2.2-2.2S126.6,72.4,125.4,72.4z"/>
		</g>
	</g>
	<g>
		<g>
			<path class="st3" d="M122.5,83.2h-8c-1.2,0-2.2,1-2.2,2.2s1,2.2,2.2,2.2h8c1.2,0,2.2-1,2.2-2.2S123.7,83.2,122.5,83.2z"/>
		</g>
	</g>
	<g>
		<g>
			<path class="st3" d="M125.4,94.1h-13.6c-1.2,0-2.2,1-2.2,2.2s1,2.2,2.2,2.2h13.6c1.2,0,2.2-1,2.2-2.2S126.6,94.1,125.4,94.1z"/>
		</g>
	</g>
</g>
</svg>
